# xmcd
#
# Track frame offsets:
#	150
#	53723
#	86895
#	113802
#	137035
#	164038
#	199759
#	230906
#	278314
#	304369
#
# Disc length: 4367 seconds
#
# Revision: 1
# Processed by: cddbd v1.5.2PL0 Copyright (c) Steve Scherf et al.
# Submitted via: audiograbber 1.83.01
#
DISCID=90110d0a
DTITLE=Grateful Dead - 82-09-20 Madison Square Garden, New York NY
DYEAR=1900
DGENRE=
TTITLE0=Shakedown Street
TTITLE1=Minglewood Blues
TTITLE2=Candyman
TTITLE3=El Paso
TTITLE4=Dupree's Diamond Blues
TTITLE5=It's All Over Now
TTITLE6=Never Trust A Woman
TTITLE7=Row Jimmy
TTITLE8=Throwing Stones
TTITLE9=Keep Your Day Job
EXTD=
EXTT0=
EXTT1=
EXTT2=
EXTT3=
EXTT4=
EXTT5=
EXTT6=
EXTT7=
EXTT8=
EXTT9=
PLAYORDER=
